P3
50 50
255
61 61 61 61 61 61 61 61 61 61 61 61 61 61 61 61 61 61 61 61 61 61 61 61 61 61 61 61 61 61 61 61 61 61 61 61 61 61 61 61 61 61 61 61 61 61 61 61 61 61 61 61 61 61 61 61 61 61 61 61 61 61 61 61 61 61 61 61 61 61 61 61 61 61 61 61 61 61 61 61 61 61 61 61 61 61 61 61 61 61 61 61 61 61 61 61 61 61 61 61 61 61 61 61 61 61 61 61 61 61 61 61 61 61 61 61 61 61 61 61 61 61 61 61 61 61 61 61 61 61 61 61 61 61 61 61 61 61 61 61 61 61 61 61 74 74 74 74 74 74 
69 69 69 69 69 69 68 68 68 61 61 61 61 61 61 61 61 61 61 61 61 61 61 61 61 61 61 61 61 61 61 61 61 61 61 61 61 61 61 61 61 61 61 61 61 61 61 61 61 61 61 61 61 61 61 61 61 61 61 61 61 61 61 61 61 61 61 61 61 61 61 61 61 61 61 61 61 61 61 61 61 61 61 61 61 61 61 61 61 61 61 61 61 61 61 61 61 61 61 61 61 61 61 61 61 61 61 61 61 61 61 61 61 61 61 61 61 61 61 61 61 61 61 61 61 61 61 61 61 61 61 61 61 61 61 61 61 61 73 73 73 74 74 74 74 74 74 74 74 74 
69 69 69 69 69 69 68 68 68 68 68 68 67 67 67 66 66 66 66 66 66 65 65 65 61 61 61 61 61 61 61 61 61 61 61 61 61 61 61 61 61 61 61 61 61 61 61 61 61 61 61 61 61 61 61 61 61 61 61 61 61 61 61 61 61 61 61 61 61 61 61 61 61 61 61 61 61 61 61 61 61 61 61 61 61 61 61 61 61 61 61 61 61 61 61 61 61 61 61 61 61 61 61 61 61 61 61 61 61 61 61 61 61 61 61 61 61 61 61 61 61 61 61 61 61 61 61 61 61 73 73 73 73 73 73 73 73 73 73 73 73 74 74 74 74 74 74 74 74 74 
69 69 69 69 69 69 68 68 68 68 68 68 67 67 67 67 67 67 66 66 66 65 65 65 65 65 65 64 64 64 63 63 63 62 62 62 61 61 61 61 61 61 61 61 61 61 61 61 61 61 61 61 61 61 61 61 61 61 61 61 61 61 61 61 61 61 61 61 61 61 61 61 61 61 61 61 61 61 61 61 61 61 61 61 61 61 61 61 61 61 61 61 61 61 61 61 61 61 61 61 61 61 61 61 61 61 61 61 61 61 61 61 61 61 61 61 61 61 61 61 61 61 61 72 72 72 73 73 73 73 73 73 73 73 73 73 73 73 73 73 73 74 74 74 74 74 74 74 74 74 
69 69 69 69 69 69 68 68 68 68 68 68 67 67 67 67 67 67 66 66 66 65 65 65 65 65 65 64 64 64 63 63 63 62 62 62 62 62 62 61 61 61 60 60 60 59 59 59 58 58 58 61 61 61 61 61 61 61 61 61 61 61 61 61 61 61 61 61 61 61 61 61 61 61 61 61 61 61 61 61 61 61 61 61 61 61 61 61 61 61 61 61 61 61 61 61 61 61 61 61 61 61 61 61 61 61 61 61 61 61 61 61 61 61 71 71 71 72 72 72 72 72 72 72 72 72 73 73 73 73 73 73 73 73 73 73 73 73 73 73 73 73 73 73 74 74 74 74 74 74 
69 69 69 69 69 69 68 68 68 68 68 68 67 67 67 66 66 66 66 66 66 65 65 65 65 65 65 64 64 64 63 63 63 62 62 62 62 62 62 61 61 61 60 60 60 59 59 59 58 58 58 58 58 58 57 57 57 56 56 56 55 55 55 61 61 61 61 61 61 61 61 61 61 61 61 61 61 61 61 61 61 61 61 61 61 61 61 61 61 61 61 61 61 61 61 61 61 61 61 61 61 61 61 61 61 61 61 61 70 70 70 71 71 71 71 71 71 72 72 72 72 72 72 72 72 72 73 73 73 73 73 73 73 73 73 73 73 73 73 73 73 73 73 73 74 74 74 74 74 74 
69 69 69 69 69 69 68 68 68 68 68 68 67 67 67 66 66 66 66 66 66 65 65 65 64 64 64 64 64 64 63 63 63 62 62 62 62 62 62 61 61 61 60 60 60 59 59 59 58 58 58 58 58 58 57 57 57 56 56 56 55 55 55 54 54 54 53 53 53 53 53 53 52 52 52 61 61 61 61 61 61 61 61 61 61 61 61 61 61 61 61 61 61 61 61 61 61 61 61 68 68 68 69 69 69 70 70 70 70 70 70 71 71 71 71 71 71 72 72 72 72 72 72 72 72 72 73 73 73 73 73 73 73 73 73 73 73 73 73 73 73 73 73 73 73 73 73 73 73 73 
69 69 69 68 68 68 68 68 68 67 67 67 67 67 67 66 66 66 66 66 66 65 65 65 64 64 64 64 64 64 63 63 63 62 62 62 62 62 62 61 61 61 60 60 60 59 59 59 58 58 58 58 58 58 57 57 57 56 56 56 55 55 55 54 54 54 53 53 53 53 53 53 52 52 52 51 51 51 50 50 50 49 49 49 48 48 48 48 48 48 61 61 61 67 67 67 68 68 68 68 68 68 69 69 69 70 70 70 70 70 70 71 71 71 71 71 71 72 72 72 72 72 72 72 72 72 72 72 72 73 73 73 73 73 73 73 73 73 73 73 73 73 73 73 73 73 73 73 73 73 
69 69 69 68 68 68 68 68 68 67 67 67 67 67 67 66 66 66 65 65 65 65 65 65 64 64 64 64 64 64 63 63 63 62 62 62 61 61 61 61 61 61 60 60 60 59 59 59 58 58 58 58 58 58 57 57 57 56 56 56 55 55 55 54 54 54 53 53 53 53 53 53 52 52 52 51 51 51 50 50 50 49 49 49 50 50 50 49 49 49 62 62 62 63 63 63 64 64 64 65 65 65 69 69 69 70 70 70 70 70 70 71 71 71 71 71 71 72 72 72 72 72 72 72 72 72 72 72 72 73 73 73 73 73 73 73 73 73 73 73 73 73 73 73 73 73 73 73 73 73 
68 68 68 68 68 68 67 67 67 67 67 67 66 66 66 66 66 66 65 65 65 65 65 65 64 64 64 63 63 63 63 63 63 62 62 62 61 61 61 61 61 61 60 60 60 59 59 59 58 58 58 57 57 57 57 57 57 56 56 56 55 55 55 54 54 54 53 53 53 53 53 53 52 52 52 51 51 51 53 53 53 52 52 52 50 50 50 49 49 49 62 62 62 63 63 63 64 64 64 65 65 65 66 66 66 67 67 67 68 68 68 69 69 69 70 70 70 71 71 71 72 72 72 72 72 72 72 72 72 72 72 72 73 73 73 73 73 73 73 73 73 73 73 73 73 73 73 73 73 73 
68 68 68 68 68 68 67 67 67 67 67 67 66 66 66 66 66 66 65 65 65 64 64 64 64 64 64 63 63 63 63 63 63 62 62 62 61 61 61 60 60 60 60 60 60 59 59 59 58 58 58 57 57 57 57 57 57 56 56 56 55 55 55 54 54 54 53 53 53 56 56 56 55 55 55 54 54 54 53 53 53 52 52 52 50 50 50 49 49 49 62 62 62 63 63 63 64 64 64 65 65 65 66 66 66 67 67 67 68 68 68 69 69 69 70 70 70 71 71 71 71 71 71 72 72 72 73 73 73 72 72 72 73 73 73 73 73 73 73 73 73 73 73 73 73 73 73 73 73 73 
69 69 69 68 68 68 67 67 67 66 66 66 66 66 66 65 65 65 65 65 65 64 64 64 64 64 64 63 63 63 62 62 62 62 62 62 61 61 61 60 60 60 59 59 59 59 59 59 58 58 58 57 57 57 56 56 56 56 56 56 55 55 55 58 58 58 57 57 57 56 56 56 55 55 55 54 54 54 53 53 53 51 51 51 50 50 50 49 49 49 62 62 62 63 63 63 64 64 64 65 65 65 66 66 66 67 67 67 68 68 68 69 69 69 70 70 70 70 70 70 71 71 71 72 72 72 73 73 73 74 74 74 75 75 75 76 76 76 76 76 76 77 77 77 73 73 73 56 56 56 
69 69 69 68 68 68 67 67 67 66 66 66 64 64 64 63 63 63 62 62 62 61 61 61 60 60 60 59 59 59 58 58 58 57 57 57 56 56 56 55 55 55 59 59 59 59 59 59 58 58 58 57 57 57 60 60 60 59 59 59 59 59 59 58 58 58 57 57 57 56 56 56 55 55 55 54 54 54 52 52 52 51 51 51 50 50 50 49 49 49 62 62 62 63 63 63 64 64 64 65 65 65 66 66 66 67 67 67 68 68 68 69 69 69 69 69 69 70 70 70 71 71 71 72 72 72 73 73 73 69 69 69 70 70 70 70 70 70 71 71 71 71 71 71 55 55 55 55 55 55 
68 68 68 67 67 67 66 66 66 65 65 65 64 64 64 63 63 63 62 62 62 61 61 61 60 60 60 59 59 59 58 58 58 57 57 57 56 56 56 54 54 54 53 53 53 52 52 52 52 52 52 58 58 58 58 58 58 57 57 57 57 57 57 56 56 56 55 55 55 54 54 54 55 55 55 53 53 53 52 52 52 51 51 51 50 50 50 49 49 49 61 61 61 63 63 63 64 64 64 65 65 65 66 66 66 66 66 66 67 67 67 63 63 63 64 64 64 65 65 65 66 66 66 67 67 67 68 68 68 69 69 69 69 69 69 70 70 70 71 71 71 71 71 71 55 55 55 55 55 55 
68 68 68 67 67 67 66 66 66 65 65 65 64 64 64 63 63 63 62 62 62 61 61 61 59 59 59 58 58 58 57 57 57 56 56 56 55 55 55 55 55 55 54 54 54 53 53 53 52 52 52 57 57 57 57 57 57 57 57 57 56 56 56 56 56 56 55 55 55 54 54 54 53 53 53 52 52 52 52 52 52 51 51 51 50 50 50 49 49 49 62 62 62 62 62 62 58 58 58 59 59 59 60 60 60 61 61 61 62 62 62 63 63 63 64 64 64 65 65 65 66 66 66 67 67 67 67 67 67 68 68 68 69 69 69 70 70 70 70 70 70 71 71 71 54 54 54 54 54 54 
67 67 67 66 66 66 65 65 65 64 64 64 63 63 63 62 62 62 61 61 61 60 60 60 58 58 58 57 57 57 56 56 56 55 55 55 55 55 55 55 55 55 54 54 54 53 53 53 52 52 52 57 57 57 57 57 57 57 57 57 56 56 56 56 56 56 55 55 55 54 54 54 53 53 53 51 51 51 50 50 50 49 49 49 48 48 48 48 48 48 60 60 60 62 62 62 58 58 58 59 59 59 60 60 60 61 61 61 62 62 62 62 62 62 63 63 63 64 64 64 65 65 65 66 66 66 67 67 67 68 68 68 69 69 69 69 69 69 70 70 70 70 70 70 54 54 54 54 54 54 
67 67 67 66 66 66 64 64 64 63 63 63 62 62 62 61 61 61 60 60 60 59 59 59 57 57 57 57 57 57 56 56 56 54 54 54 55 55 55 54 54 54 53 53 53 227 68 45 231 69 46 221 66 44 207 62 41 188 56 37 164 49 32 134 40 26 54 54 54 53 53 53 51 51 51 50 50 50 49 49 49 49 49 49 48 48 48 47 47 47 60 60 60 61 61 61 57 57 57 58 58 58 59 59 59 60 60 60 61 61 61 62 62 62 63 63 63 64 64 64 65 65 65 66 66 66 66 66 66 67 67 67 68 68 68 69 69 69 69 69 69 69 69 69 53 53 53 54 54 54 
66 66 66 65 65 65 64 64 64 62 62 62 61 61 61 60 60 60 59 59 59 58 58 58 57 57 57 56 56 56 55 55 55 54 54 54 54 54 54 53 53 53 250 75 50 248 74 49 239 71 47 226 67 45 211 63 42 193 57 38 172 51 34 148 44 29 119 35 23 78 23 15 51 51 51 50 50 50 49 49 49 48 48 48 47 47 47 47 47 47 59 59 59 61 61 61 57 57 57 58 58 58 59 59 59 60 60 60 61 61 61 62 62 62 62 62 62 63 63 63 64 64 64 65 65 65 66 66 66 67 67 67 67 67 67 68 68 68 68 68 68 69 69 69 53 53 53 53 53 53 
65 65 65 64 64 64 63 63 63 61 61 61 60 60 60 59 59 59 98 60 55 78 54 50 63 49 47 55 55 55 55 55 55 53 53 53 53 53 53 253 76 50 253 76 50 246 73 49 235 70 47 222 66 44 206 62 41 189 56 37 170 51 34 148 44 29 123 36 24 93 27 18 51 15 10 49 49 49 49 49 49 48 48 48 47 47 47 46 46 46 59 59 59 60 60 60 57 57 57 58 58 58 59 59 59 60 60 60 60 60 60 61 61 61 62 62 62 63 63 63 64 64 64 64 64 64 65 65 65 66 66 66 67 67 67 67 67 67 68 68 68 68 68 68 53 53 53 53 53 53 
63 63 63 62 62 62 65 62 61 76 62 60 68 59 57 112 76 71 75 53 50 59 48 46 50 45 44 49 44 43 54 54 54 53 53 53 246 73 49 251 75 50 247 74 49 240 73 49 236 77 54 215 65 44 198 59 39 181 54 36 163 48 32 142 42 28 119 35 23 92 27 18 59 17 11 25 7 5 48 48 48 47 47 47 46 46 46 46 46 46 58 58 58 59 59 59 59 57 57 60 58 58 63 60 59 59 59 59 60 60 60 61 61 61 62 62 62 62 62 62 63 63 63 64 64 64 65 65 65 65 65 65 66 66 66 67 67 67 67 67 67 67 67 67 53 53 53 53 53 53 
62 62 62 62 61 61 74 61 59 69 59 57 100 61 55 77 53 50 59 48 46 50 45 44 49 44 43 49 44 43 48 43 42 220 66 44 242 72 48 242 72 48 237 71 48 255 119 96 255 143 121 208 66 46 188 56 37 171 51 34 153 46 30 133 40 26 111 33 22 86 26 17 57 17 11 25 7 5 48 48 48 47 47 47 46 46 46 44 44 44 67 67 67 57 56 55 58 57 56 59 58 57 60 59 58 59 59 59 60 60 60 60 60 60 61 61 61 62 62 62 63 63 63 63 63 63 64 64 64 65 65 65 65 65 65 66 66 66 66 66 66 52 52 52 52 52 52 52 52 52 
62 62 62 60 60 61 61 69 64 59 55 55 83 55 51 62 49 47 50 45 44 50 44 43 49 44 43 48 43 42 48 43 42 222 66 44 231 69 46 230 69 46 225 68 46 243 93 71 224 82 61 190 57 38 175 52 35 159 47 31 141 42 28 122 36 24 101 30 20 77 23 15 49 14 9 25 7 5 25 7 5 46 46 46 44 44 44 43 43 43 185 185 185 211 211 211 205 205 205 180 180 180 138 138 138 89 89 89 59 59 59 60 60 60 61 61 61 61 61 61 63 64 64 64 65 64 54 58 56 68 89 76 65 65 65 65 65 65 66 66 66 52 52 52 52 52 52 52 52 52 
69 69 69 68 68 68 66 66 66 65 66 65 71 51 48 50 45 44 49 44 43 71 92 79 68 155 103 81 183 122 55 124 82 211 63 42 217 65 43 215 64 43 208 62 41 200 60 40 188 56 37 175 52 35 161 48 32 145 43 29 128 38 25 109 32 21 89 26 17 66 19 13 39 11 7 25 7 5 25 7 5 55 55 55 171 171 171 211 211 211 187 187 187 208 208 208 184 184 184 162 162 162 142 142 142 81 81 81 50 50 50 60 60 60 60 60 60 62 63 62 62 64 63 51 53 52 54 58 55 57 64 60 74 102 85 65 65 65 65 65 65 52 52 52 52 52 52 52 52 52 
88 88 88 87 87 87 87 87 86 86 85 84 83 83 83 49 44 43 62 88 73 81 182 121 101 228 152 96 217 145 78 176 117 194 58 38 200 60 40 198 59 39 192 57 38 183 54 36 172 51 34 159 47 31 146 43 29 130 39 26 113 34 22 95 28 19 75 22 15 52 15 10 26 7 5 25 7 5 25 7 5 52 52 52 218 218 218 249 249 249 240 240 240 222 222 222 196 196 196 185 185 185 139 139 139 93 93 93 68 68 68 18 18 18 69 69 69 70 70 70 168 105 63 138 86 51 56 54 53 57 54 53 89 76 67 89 89 89 90 90 90 86 86 86 87 87 87 88 88 88 
95 95 95 93 93 93 92 92 92 94 90 89 85 94 106 88 132 199 61 92 138 82 185 123 93 211 140 88 199 132 70 158 105 174 52 34 181 54 36 179 53 35 173 52 34 165 49 33 154 46 30 142 42 28 129 38 25 114 34 22 97 29 19 79 23 15 59 17 11 37 11 7 25 7 5 25 7 5 25 7 5 186 186 186 131 131 131 215 215 215 255 255 255 219 219 219 196 196 196 175 175 175 150 150 150 104 104 104 52 52 52 17 17 17 80 80 80 182 114 68 230 154 103 171 107 64 94 58 35 162 72 90 107 47 59 57 54 54 98 78 82 84 84 84 85 85 85 87 87 87 
90 90 90 89 89 89 87 87 87 93 86 85 82 123 185 199 247 255 73 110 165 55 125 83 71 160 106 65 148 98 48 108 72 149 44 29 159 47 31 158 47 31 153 46 30 146 43 29 136 40 27 124 37 24 111 33 22 96 28 19 80 24 16 62 18 12 60 60 60 71 71 71 91 91 91 82 82 82 25 7 5 143 143 143 212 212 212 108 108 108 126 126 126 172 172 172 186 186 186 153 153 153 141 141 141 112 112 112 66 66 66 26 26 26 22 22 22 153 95 57 172 107 64 142 88 53 177 78 98 255 163 188 182 80 101 30 13 16 57 53 54 55 55 55 55 55 55 56 56 56 
84 84 84 83 83 83 82 82 82 81 81 81 29 44 67 58 87 131 34 51 77 34 32 32 27 61 40 26 60 40 10 22 15 116 35 23 134 40 26 135 40 27 132 39 26 125 37 25 115 34 23 104 31 20 91 27 18 77 23 15 60 18 12 183 183 183 84 84 84 119 119 119 139 139 139 126 126 126 89 89 89 47 47 47 149 149 149 162 162 162 113 113 113 148 148 148 169 169 169 137 137 137 121 121 121 97 97 97 60 60 60 19 19 19 18 18 18 106 106 106 84 52 31 56 35 21 90 40 50 168 74 93 124 55 69 6 3 3 57 53 54 77 77 77 78 78 78 78 78 78 
131 131 131 131 131 131 131 131 131 131 131 131 126 126 127 112 114 117 112 114 117 110 111 110 112 117 114 112 117 114 112 117 114 112 117 114 103 31 20 109 32 21 107 32 21 101 30 20 93 27 18 82 24 16 70 21 14 55 16 11 226 226 226 151 151 151 54 54 54 85 85 85 111 111 111 107 107 107 85 85 85 59 59 59 15 15 15 166 166 166 111 111 111 114 114 114 139 139 139 126 126 126 101 101 101 77 77 77 44 44 44 15 15 15 12 12 12 107 100 95 110 101 95 94 91 89 88 87 86 94 88 90 93 88 89 85 84 84 105 103 103 75 75 75 75 75 75 76 76 76 
141 141 141 141 141 141 141 141 141 140 140 140 131 138 149 142 155 174 137 148 163 121 123 126 133 153 141 132 153 140 128 143 134 120 125 122 56 17 11 78 23 15 79 23 15 75 22 15 68 20 13 58 17 11 46 13 9 179 179 179 200 200 200 148 148 148 79 79 79 64 64 64 90 90 90 80 80 80 58 58 58 47 47 47 19 19 19 23 23 23 130 130 130 119 119 119 77 77 77 69 69 69 72 72 72 53 53 53 24 24 24 11 11 11 119 119 119 155 132 116 150 129 114 132 117 107 154 119 126 152 118 124 125 105 109 91 89 90 110 109 109 107 107 107 106 106 106 105 105 105 
149 149 149 149 149 149 149 149 149 148 148 148 148 148 148 164 184 214 159 176 202 146 175 158 153 190 168 152 188 166 147 177 159 138 157 146 143 143 143 30 9 6 44 13 8 44 13 8 39 11 7 30 9 6 25 7 5 177 177 177 204 204 204 137 137 137 68 68 68 45 45 45 36 36 36 32 32 32 39 39 39 19 19 19 13 13 13 24 24 24 24 24 24 104 104 104 94 94 94 75 75 75 37 37 37 23 23 23 25 25 25 24 24 24 41 41 41 94 65 45 120 92 72 75 53 38 98 52 61 106 57 67 155 121 128 116 114 115 127 119 121 111 111 111 111 111 111 110 110 110 
156 156 156 156 156 156 155 155 155 155 155 155 154 154 154 154 154 154 153 153 153 163 151 149 167 214 186 217 255 235 161 202 177 150 178 161 148 148 148 147 147 147 146 146 146 25 7 5 25 7 5 25 7 5 25 7 5 170 170 170 187 187 187 140 140 140 85 85 85 54 54 54 47 47 47 32 32 32 17 17 17 11 11 11 10 10 10 23 23 23 24 24 24 25 25 25 61 61 61 33 33 33 25 25 25 25 25 25 22 22 22 41 41 41 41 41 41 41 41 41 84 59 42 63 46 34 42 42 42 43 43 43 43 43 43 124 124 124 123 123 123 116 116 116 115 115 115 114 114 114 
162 162 162 161 161 161 161 161 161 160 160 160 159 159 159 159 159 159 158 158 158 157 157 157 156 156 156 172 220 191 164 205 181 153 153 153 152 152 152 151 151 151 150 150 150 36 36 36 36 36 36 25 7 5 25 7 5 143 143 143 160 160 160 147 147 147 91 91 91 64 64 64 36 36 36 18 18 18 10 10 10 8 8 8 10 10 10 22 22 22 25 25 25 24 24 24 23 23 23 11 11 11 14 14 14 15 15 15 43 43 43 43 43 43 41 41 41 42 42 42 42 42 42 42 42 42 43 43 43 43 43 43 43 43 43 128 128 128 127 127 127 119 119 119 118 118 118 118 118 118 
166 166 166 166 166 166 165 165 165 164 164 164 164 164 164 163 163 163 162 162 162 161 161 161 160 160 160 159 159 159 158 158 158 157 157 157 156 156 156 155 155 155 153 153 153 142 135 134 141 134 133 26 19 18 26 19 18 57 57 57 121 121 121 113 113 113 75 75 75 41 41 41 18 18 18 12 12 12 8 8 8 10 10 10 9 9 9 35 35 35 26 26 26 25 25 25 22 22 22 25 25 25 26 26 26 43 43 43 43 43 43 43 43 43 44 44 44 44 44 44 44 44 44 45 45 45 43 43 43 132 132 132 132 132 132 131 131 131 130 130 130 123 123 123 122 122 122 121 121 121 
170 170 170 169 169 169 168 168 168 168 168 168 167 167 167 166 166 166 165 165 165 164 164 164 163 163 163 163 163 163 162 162 162 161 161 161 160 160 160 159 159 159 145 138 137 144 137 136 143 136 135 143 135 134 142 135 134 141 134 133 58 58 58 73 73 73 50 50 50 19 19 19 6 6 6 9 9 9 8 8 8 10 10 10 26 26 26 24 24 24 26 26 26 24 24 24 25 25 25 26 26 26 126 126 126 125 125 125 141 141 141 141 141 141 140 140 140 140 140 140 139 139 139 138 138 138 138 138 138 137 137 137 137 137 137 134 134 134 126 126 126 125 125 125 125 125 125 124 124 124 
173 173 173 172 172 172 171 171 171 170 170 170 169 169 169 169 169 169 168 168 168 167 167 167 166 166 166 165 165 165 164 164 164 164 164 164 162 162 162 148 141 140 147 140 139 146 139 138 145 138 137 144 137 136 144 136 135 143 136 135 142 135 134 22 22 22 18 18 18 9 9 9 11 11 11 9 9 9 8 8 8 25 25 25 23 23 23 25 25 25 26 26 26 26 26 26 26 26 26 26 26 26 128 128 128 126 126 126 125 125 125 143 143 143 143 143 143 142 142 142 141 141 141 141 141 141 140 140 140 140 140 140 139 139 139 137 137 137 136 136 136 135 135 135 128 128 128 127 127 127 
174 174 174 173 173 173 173 173 173 172 172 172 171 171 171 171 171 171 170 170 170 169 169 169 168 168 168 167 167 167 166 166 166 165 165 165 150 143 142 149 142 141 149 141 140 148 141 140 147 140 139 146 139 138 145 138 137 144 137 136 143 136 135 139 139 139 23 23 23 23 23 23 25 25 25 26 26 26 26 26 26 38 38 38 22 22 22 26 26 26 26 26 26 26 26 26 131 131 131 129 129 129 128 128 128 126 126 126 129 129 129 127 127 127 145 145 145 144 144 144 144 144 144 143 143 143 142 142 142 141 141 141 140 140 140 139 139 139 138 138 138 137 137 137 137 137 137 136 136 136 
176 176 176 175 175 175 174 174 174 174 174 174 173 173 173 172 172 172 171 171 171 170 170 170 170 170 170 169 169 169 168 168 168 167 167 167 164 148 146 161 146 144 156 145 143 151 142 141 148 141 140 147 140 139 146 139 138 146 138 137 141 141 141 141 141 141 140 140 140 138 138 138 137 137 137 138 138 138 138 138 138 138 138 138 135 135 135 136 136 136 135 135 135 135 135 135 134 134 134 127 127 127 129 129 129 131 131 131 129 129 129 129 129 129 147 147 147 146 146 146 145 145 145 144 144 144 144 144 144 143 143 143 142 142 142 141 141 141 140 140 140 140 140 140 139 139 139 138 138 138 
177 177 177 176 176 176 176 176 176 175 175 175 174 174 174 173 173 173 172 172 172 172 172 172 171 171 171 170 170 170 169 169 169 168 168 168 175 152 149 171 150 147 166 148 146 161 146 144 156 144 142 150 142 140 147 140 139 147 139 138 144 144 144 144 144 144 142 142 142 139 139 139 137 137 137 136 136 136 135 135 135 135 135 135 136 136 136 138 138 138 137 137 137 136 136 136 147 147 147 135 135 135 133 133 133 133 133 133 132 132 132 131 131 131 148 148 148 148 148 148 147 147 147 146 146 146 145 145 145 145 145 145 144 144 144 143 143 143 142 142 142 141 141 141 141 141 141 140 140 140 
178 178 178 177 177 177 177 177 177 176 176 176 175 175 175 174 174 174 173 173 173 172 172 172 171 171 171 171 171 171 170 170 170 169 169 169 186 156 151 181 154 150 176 152 148 170 149 146 165 147 145 159 145 143 154 143 141 159 159 159 154 154 154 146 146 146 142 142 142 138 138 138 138 138 138 137 137 137 134 134 134 135 135 135 135 135 135 138 138 138 138 138 138 167 167 167 159 159 159 149 149 149 135 135 135 133 133 133 131 131 131 129 129 129 150 150 150 149 149 149 148 148 148 148 148 148 147 147 147 146 146 146 145 145 145 145 145 145 144 144 144 143 143 143 142 142 142 141 141 141 
179 179 179 178 178 178 177 177 177 176 176 176 176 176 176 175 175 175 174 174 174 173 173 173 172 172 172 171 171 171 170 170 170 169 169 169 196 159 154 191 157 152 185 155 150 180 153 149 174 150 147 168 148 145 163 146 143 173 173 173 166 166 166 159 159 159 146 146 146 138 138 138 137 137 137 136 136 136 136 136 136 136 136 136 134 134 134 189 189 189 181 181 181 173 173 173 155 155 155 152 152 152 147 147 147 139 139 139 132 132 132 130 130 130 151 151 151 150 150 150 150 150 150 149 149 149 148 148 148 147 147 147 147 147 147 146 146 146 145 145 145 144 144 144 144 144 144 143 143 143 
179 179 179 178 178 178 178 178 178 177 177 177 176 176 176 175 175 175 174 174 174 174 174 174 173 173 173 172 172 172 171 171 171 170 170 170 206 162 156 200 160 154 194 158 153 189 156 151 183 153 149 177 151 147 171 149 146 187 187 187 185 185 185 173 173 173 158 158 158 142 142 142 137 137 137 137 137 137 137 137 137 136 136 136 135 135 135 194 194 194 169 169 169 171 171 171 173 173 173 171 171 171 159 159 159 149 149 149 136 136 136 132 132 132 152 152 152 152 152 152 151 151 151 150 150 150 149 149 149 149 149 149 148 148 148 147 147 147 147 147 147 146 146 146 145 145 145 144 144 144 
180 180 180 179 179 179 178 178 178 177 177 177 177 177 177 176 176 176 175 175 175 174 174 174 173 173 173 172 172 172 171 171 171 170 170 170 216 165 158 210 163 157 204 161 155 198 159 153 192 156 151 186 154 149 180 152 148 198 198 198 200 200 200 187 187 187 167 167 167 151 151 151 141 141 141 138 138 138 137 137 137 136 136 136 136 136 136 179 179 179 175 175 175 193 193 193 189 189 189 175 175 175 171 171 171 159 159 159 140 140 140 154 154 154 153 153 153 153 153 153 152 152 152 151 151 151 151 151 151 150 150 150 149 149 149 148 148 148 148 148 148 147 147 147 146 146 146 146 146 146 
180 180 180 179 179 179 178 178 178 178 178 178 177 177 177 176 176 176 175 175 175 174 174 174 173 173 173 172 172 172 171 171 171 170 170 170 226 169 160 219 166 159 214 164 157 210 164 158 202 160 154 195 157 151 189 154 150 182 152 148 214 214 214 201 201 201 175 175 175 161 161 161 147 147 147 141 141 141 138 138 138 138 138 138 139 139 139 230 230 230 213 213 213 212 212 212 200 200 200 187 187 187 179 179 179 158 158 158 155 155 155 155 155 155 154 154 154 153 153 153 153 153 153 152 152 152 151 151 151 151 151 151 150 150 150 149 149 149 149 149 149 148 148 148 147 147 147 147 147 147 
180 180 180 179 179 179 178 178 178 178 178 178 177 177 177 176 176 176 175 175 175 174 174 174 173 173 173 172 172 172 172 172 172 171 171 171 170 170 170 230 169 161 223 167 159 236 184 177 238 190 184 207 163 156 197 157 152 191 155 150 222 222 222 202 202 202 176 176 176 158 158 158 155 155 155 148 148 148 144 144 144 147 147 147 157 157 157 157 157 157 156 156 156 213 213 213 204 204 204 192 192 192 169 169 169 156 156 156 156 156 156 155 155 155 155 155 155 154 154 154 154 154 154 153 153 153 152 152 152 152 152 152 151 151 151 150 150 150 150 150 150 149 149 149 148 148 148 148 148 148 
180 180 180 179 179 179 179 179 179 178 178 178 177 177 177 176 176 176 175 175 175 174 174 174 173 173 173 173 173 173 172 172 172 171 171 171 170 170 170 240 173 163 233 170 161 227 169 160 235 180 173 219 168 161 206 160 154 200 158 152 193 155 150 186 153 148 160 160 160 156 156 156 160 160 160 160 160 160 162 162 162 158 158 158 158 158 158 157 157 157 156 156 156 156 156 156 155 155 155 154 154 154 154 154 154 153 153 153 156 156 156 156 156 156 155 155 155 155 155 155 154 154 154 154 154 154 153 153 153 153 153 153 152 152 152 151 151 151 151 151 151 150 150 150 149 149 149 149 149 149 
180 180 180 179 179 179 179 179 179 178 178 178 177 177 177 176 176 176 175 175 175 174 174 174 174 174 174 173 173 173 172 172 172 171 171 171 170 170 170 169 169 169 244 173 163 236 170 161 229 168 159 222 165 157 215 163 155 208 160 153 202 158 152 194 155 150 187 152 147 161 161 161 161 161 161 160 160 160 159 159 159 159 159 159 158 158 158 157 157 157 157 157 157 156 156 156 155 155 155 155 155 155 154 154 154 153 153 153 153 153 153 152 152 152 156 156 156 155 155 155 155 155 155 154 154 154 154 154 154 153 153 153 153 153 153 152 152 152 151 151 151 151 151 151 150 150 150 150 150 150 
180 180 180 179 179 179 178 178 178 178 178 178 177 177 177 176 176 176 175 175 175 174 174 174 173 173 173 173 173 173 172 172 172 171 171 171 169 169 169 168 168 168 167 167 167 167 167 167 239 171 161 232 168 159 225 166 157 218 163 155 210 160 153 202 158 151 162 162 162 162 162 162 161 161 161 160 160 160 160 160 160 159 159 159 158 158 158 158 158 158 157 157 157 156 156 156 156 156 156 155 155 155 155 155 155 154 154 154 153 153 153 153 153 153 152 152 152 156 156 156 156 156 156 155 155 155 154 154 154 154 154 154 153 153 153 153 153 153 152 152 152 152 152 152 151 151 151 150 150 150 
180 180 180 179 179 179 178 178 178 178 178 178 177 177 177 176 176 176 175 175 175 174 174 174 173 173 173 172 172 172 170 170 170 169 169 169 169 169 169 168 168 168 167 167 167 167 167 167 166 166 166 166 166 166 165 165 165 164 164 164 164 164 164 163 163 163 162 162 162 162 162 162 161 161 161 161 161 161 160 160 160 159 159 159 159 159 159 158 158 158 157 157 157 157 157 157 156 156 156 156 156 156 155 155 155 154 154 154 154 154 154 153 153 153 152 152 152 152 152 152 151 151 151 156 156 156 155 155 155 154 154 154 154 154 154 153 153 153 153 153 153 152 152 152 152 152 152 151 151 151 
180 180 180 179 179 179 178 178 178 177 177 177 177 177 177 176 176 176 175 175 175 172 172 172 171 171 171 170 170 170 170 170 170 169 169 169 169 169 169 168 168 168 167 167 167 167 167 167 166 166 166 166 166 166 165 165 165 164 164 164 164 164 164 163 163 163 163 163 163 162 162 162 161 161 161 161 161 161 160 160 160 160 160 160 159 159 159 158 158 158 158 158 158 157 157 157 156 156 156 156 156 156 155 155 155 155 155 155 154 154 154 153 153 153 153 153 153 152 152 152 152 152 152 151 151 151 156 156 156 155 155 155 154 154 154 154 154 154 153 153 153 153 153 153 152 152 152 152 152 152 
179 179 179 179 179 179 178 178 178 177 177 177 173 173 173 173 173 173 172 172 172 171 171 171 171 171 171 170 170 170 170 170 170 169 169 169 169 169 169 168 168 168 167 167 167 167 167 167 166 166 166 166 166 166 165 165 165 164 164 164 164 164 164 163 163 163 163 163 163 162 162 162 161 161 161 161 161 161 160 160 160 160 160 160 159 159 159 159 159 159 158 158 158 157 157 157 157 157 157 156 156 156 156 156 156 155 155 155 154 154 154 154 154 154 153 153 153 153 153 153 152 152 152 152 152 152 151 151 151 150 150 150 155 155 155 154 154 154 154 154 154 153 153 153 153 153 153 152 152 152 
